<?xml version="1.0" encoding="UTF-8"?>
<svg version="1.1" xmlns="http://www.w3.org/2000/svg" width="184" height="177">
<path d="M0 0 C3.40716574 0.85179144 4.88064034 2.14124053 6.96484375 4.94921875 C8.60004254 7.79384759 9.29642062 10.55191191 10 13.75 C13.77315072 14.10099077 15.48542488 14.11755366 18.625 11.875 C19.40875 11.17375 20.1925 10.4725 21 9.75 C24.05430201 7.84106125 26.40061066 7.10395576 30 7.75 C33.06647824 11.6780126 33.33592111 14.66460329 33.1875 19.5625 C33.14689453 21.30466797 33.14689453 21.30466797 33.10546875 23.08203125 C33.07066406 23.96246094 33.03585938 24.84289062 33 25.75 C37.48243029 28.60245564 41.90049982 27.67380308 47.00390625 27.33203125 C50 27.75 50 27.75 51.9375 30.04296875 C53.46351555 33.93094218 52.56245366 35.94576501 51 39.75 C50.29875 40.575 49.5975 41.4 48.875 42.25 C46.41426207 45.5309839 46.68623384 47.74948144 47 51.75 C48.03125 51.811875 49.0625 51.87375 50.125 51.9375 C55.02705212 52.96534964 56.64632331 54.06913534 60 57.75 C60.75 60.75 60.75 60.75 60 63.75 C55.9625112 68.18139015 53.10405445 69.38375673 47 69.75 C46.58095297 72.99797733 46.58095297 72.99797733 47 76.75 C48.26937985 78.20978683 49.54161673 79.66874486 50.875 81.0703125 C52.73247891 83.84363171 52.51294664 86.54842206 52.46875 89.796875 C52 91.75 52 91.75 49 93.75 C46.64753566 93.83951113 44.29037872 93.82786155 41.9375 93.75 C39.62625994 93.67367422 37.3106841 93.65837436 35 93.75 C32.71024824 95.59113016 32.71024824 95.59113016 32.875 98.39453125 C32.95802555 100.49871008 33.0413566 102.60287689 33.125 104.70703125 C32.99498375 107.87211438 32.43458444 109.94144736 31 112.75 C28.36200766 114.16321018 26.98081281 113.74550938 24.0625 113.0625 C21 111.75 21 111.75 18.5 109.625 C15.44422645 107.33316984 13.73079957 107.40294888 10 107.75 C9.773125 108.78125 9.54625 109.8125 9.3125 110.875 C8.05535155 115.19150272 6.30127461 117.6738123 3 120.75 C0.0625 121.625 0.0625 121.625 -3 120.75 C-6.72625988 117.13639449 -9.66799152 113.06213567 -10 107.75 C-12.19514873 106.7906843 -12.19514873 106.7906843 -15 106.75 C-16.54609789 107.94178379 -18.08940045 109.14458379 -19.52734375 110.46484375 C-22.361775 112.93839251 -24.91487989 113.72416381 -28.625 113.8125 C-31 112.75 -31 112.75 -32.9375 109.8125 C-34.73902611 105.00843038 -33.33708027 100.53078341 -32 95.75 C-32.66 95.75 -33.32 95.75 -34 95.75 C-34 95.09 -34 94.43 -34 93.75 C-35.12019531 93.79640625 -36.24039063 93.8428125 -37.39453125 93.890625 C-38.86716085 93.92814423 -40.33981927 93.96454423 -41.8125 94 C-42.55048828 94.03351563 -43.28847656 94.06703125 -44.04882812 94.1015625 C-49.49518033 94.20013901 -49.49518033 94.20013901 -52.01953125 91.94921875 C-53.51761405 88.58897726 -52.86376005 86.26673737 -52 82.75 C-49.66666667 78.08333333 -49.66666667 78.08333333 -47 76.75 C-46.85968434 73.82797583 -46.85968434 73.82797583 -48 70.75 C-49.94479756 69.69526997 -51.87764105 69.10476768 -53.98828125 68.44921875 C-56.84434374 67.45652907 -58.29571748 66.235412 -60 63.75 C-60.625 60.8125 -60.625 60.8125 -60 57.75 C-57.0241597 54.7741597 -53.96321117 52.253287 -50 50.75 C-49.01 50.75 -48.02 50.75 -47 50.75 C-46.53898127 46.68158868 -46.53898127 46.68158868 -48.3125 43.25 C-48.869375 42.755 -49.42625 42.26 -50 41.75 C-52.19605318 38.00857607 -53.70974362 35.12675232 -53 30.75 C-51.94921875 29.109375 -51.94921875 29.109375 -50 27.75 C-47.39863727 27.58469601 -45.02295347 27.55786042 -42.4375 27.6875 C-39.93499372 27.79814703 -37.51009748 27.81689715 -35 27.75 C-34.34 27.09 -33.68 26.43 -33 25.75 C-33.05611858 23.76325787 -33.05611858 23.76325787 -33.5 21.5625 C-34.12093628 16.97939887 -33.74939492 14.03601755 -32 9.75 C-29 7.75 -29 7.75 -26.1875 7.875 C-22.51936906 8.88193791 -20.10664938 10.5888526 -17 12.75 C-14.41598787 13.63594702 -12.77090861 13.75 -10 13.75 C-9.773125 12.71875 -9.54625 11.6875 -9.3125 10.625 C-7.81828535 5.49451472 -5.48527452 1.37131863 0 0 Z M-1 7.75 C-2.96301592 11.25538557 -3.95902388 14.88351728 -5 18.75 C-8.98465898 20.28409371 -12.72306152 21.47811638 -17 21.75 C-19.72235814 20.27432923 -21.40918693 18.67653346 -23.4765625 16.38671875 C-24.23066406 15.57654297 -24.23066406 15.57654297 -25 14.75 C-25.66 14.75 -26.32 14.75 -27 14.75 C-27.08343 18.17062981 -26.96972509 20.861008 -26.0625 24.1875 C-25.99016997 28.31031168 -26.44751757 28.77425232 -29.1875 31.625 C-31.67590152 33.96147805 -33.57586904 35.29540445 -37 35.75 C-37.33 35.42 -37.66 35.09 -38 34.75 C-40.33297433 34.70907063 -42.66705225 34.70758277 -45 34.75 C-44.65120368 38.00543229 -43.97866739 38.76873107 -41.4375 41 C-40.2309375 41.86625 -40.2309375 41.86625 -39 42.75 C-39.13277344 43.34167969 -39.26554687 43.93335938 -39.40234375 44.54296875 C-40.31005178 48.60446525 -41.2091113 52.66374171 -42 56.75 C-42.62648438 56.85957031 -43.25296875 56.96914063 -43.8984375 57.08203125 C-44.71570312 57.24058594 -45.53296875 57.39914063 -46.375 57.5625 C-47.18710937 57.71332031 -47.99921875 57.86414062 -48.8359375 58.01953125 C-51.35820641 58.62544942 -51.35820641 58.62544942 -53 61.75 C-49.17482487 64.14073445 -45.40334476 64.30966552 -41 64.75 C-40.93941406 65.34167969 -40.87882812 65.93335938 -40.81640625 66.54296875 C-40.37987629 70.65978208 -39.91328654 74.70544533 -39 78.75 C-39.969375 79.4925 -40.93875 80.235 -41.9375 81 C-44.02387361 82.72309915 -44.90112479 83.48868694 -45.875 86.0625 C-45.91625 86.619375 -45.9575 87.17625 -46 87.75 C-41.73378599 87.94842856 -38.89795604 87.43560261 -35 85.75 C-34.01 85.75 -33.02 85.75 -32 85.75 C-31.731875 86.348125 -31.46375 86.94625 -31.1875 87.5625 C-30.00082594 89.74847854 -28.90400887 91.16332594 -27 92.75 C-26.34 92.75 -25.68 92.75 -25 92.75 C-25.875 98.5 -25.875 98.5 -27 100.75 C-27.039992 102.74960012 -27.04346799 104.75047242 -27 106.75 C-22.29157376 104.63673474 -22.29157376 104.63673474 -19 100.75 C-13.72684667 101.1952885 -8.98229776 101.83373163 -4 103.75 C-3.87625 104.843125 -3.7525 105.93625 -3.625 107.0625 C-3.24535199 110.82381802 -3.24535199 110.82381802 -1 113.75 C-0.34 113.75 0.32 113.75 1 113.75 C3.57877584 109.72066275 3 108.23465565 3 102.75 C7.95 101.76 12.9 100.77 18 99.75 C18.7425 100.719375 19.485 101.68875 20.25 102.6875 C21.97309915 104.77387361 22.73868694 105.65112479 25.3125 106.625 C25.869375 106.66625 26.42625 106.7075 27 106.75 C27.23428313 101.9602679 27.23428313 101.9602679 25 97.75 C25.24283452 93.89598124 27.36023863 92.07358226 30.0625 89.5 C31.16271484 88.44039062 31.16271484 88.44039062 32.28515625 87.359375 C32.85105469 86.82828125 33.41695313 86.2971875 34 85.75 C34.86625 86.08 35.7325 86.41 36.625 86.75 C39.95718275 87.73731341 42.55159538 87.91420974 46 87.75 C44.20578369 83.7130133 42.79448125 81.10519526 39 78.75 C39.144375 78.15832031 39.28875 77.56664063 39.4375 76.95703125 C39.7159375 75.77173828 39.7159375 75.77173828 40 74.5625 C40.2784375 73.39654297 40.2784375 73.39654297 40.5625 72.20703125 C41.01422743 69.67009775 41.07307143 67.32120097 41 64.75 C41.69867188 64.62882812 42.39734375 64.50765625 43.1171875 64.3828125 C44.48230469 64.13144531 44.48230469 64.13144531 45.875 63.875 C47.23238281 63.63136719 47.23238281 63.63136719 48.6171875 63.3828125 C51.16505988 62.91955297 51.16505988 62.91955297 53 60.75 C49.57653445 57.60041169 46.55737263 57.18820891 42 56.75 C41.46706165 55.00364835 40.94909337 53.25272348 40.4375 51.5 C40.14746094 50.52546875 39.85742188 49.5509375 39.55859375 48.546875 C38.99661408 45.73304673 38.90917838 44.36910816 40 41.75 C41.66666667 40.08333333 43.33333333 38.41666667 45 36.75 C45 35.76 45 34.77 45 33.75 C41.53058454 34.20822468 38.32604951 34.64131683 35 35.75 C33.02734375 34.31640625 33.02734375 34.31640625 30.9375 32.3125 C28.39095529 29.53635854 28.39095529 29.53635854 25 28.75 C25.875 21.875 25.875 21.875 27 20.75 C27.04080783 18.75041636 27.04254356 16.74954746 27 14.75 C23.20811651 15.93486523 23.20811651 15.93486523 20.66796875 18.83984375 C19 20.75 19 20.75 16.4765625 20.95703125 C15.53554687 20.82683594 14.59453125 20.69664063 13.625 20.5625 C12.68914062 20.44519531 11.75328125 20.32789063 10.7890625 20.20703125 C8.17794149 19.77915848 5.58975859 19.29149498 3 18.75 C3.0825 17.6775 3.165 16.605 3.25 15.5 C3.36237217 11.70990735 3.36237217 11.70990735 1 9.3125 C0.34 8.796875 -0.32 8.28125 -1 7.75 Z " fill="#FEFEFE" transform="translate(68,2.25)"/>
<path d="M0 0 C3.38031589 1.18767855 3.93216817 1.89825225 6 5 C6.2475 4.360625 6.495 3.72125 6.75 3.0625 C8 1 8 1 9.6875 0.25 C12.93485838 -0.10106577 15.73059477 -0.35029342 19 0 C22.1190035 2.71913126 22.93764029 4.17373382 23.25 8.3125 C23.1675 9.199375 23.085 10.08625 23 11 C23.33 10.484375 23.66 9.96875 24 9.4375 C26.81453043 7.41455625 28.74037619 8.00857616 32.0625 8.48046875 C34 9 34 9 37 11 C38.52410284 13.81959025 39.04844263 15.47924169 38.75 18.6875 C38 21 38 21 36 23 C37.093125 23.103125 38.18625 23.20625 39.3125 23.3125 C43 24 43 24 44.875 25.1875 C47.16753673 28.8810314 47.19588315 32.07400693 46.3125 36.25 C45 39 45 39 42.875 40.375 C42.25625 40.58125 41.6375 40.7875 41 41 C41.804375 41.33 42.60875 41.66 43.4375 42 C46.22142677 44.1728209 46.45902162 44.57938457 47 47.875 C47.16523501 50.68399513 46.94591923 52.1554822 46 54.875 C43.31291015 57.73003297 40.77765791 58.21595779 37 59 C37.66 59.99 38.32 60.98 39 62 C38.91456329 65.9300886 38.2409771 67.6901723 35.8125 70.8125 C32.6901723 73.2409771 30.9300886 73.91456329 27 74 C26.01 73.34 25.02 72.68 24 72 C23.7525 73.093125 23.505 74.18625 23.25 75.3125 C21.92853675 79.21081658 21.47293149 80.07059362 18 82 C15.421875 82.07421875 15.421875 82.07421875 12.75 81.6875 C11.85796875 81.56761719 10.9659375 81.44773437 10.046875 81.32421875 C9.37140625 81.21722656 8.6959375 81.11023438 8 81 C7.34 79.35 6.68 77.7 6 76 C5.690625 76.804375 5.38125 77.60875 5.0625 78.4375 C2.76544016 81.29142283 2.15373549 81.53562326 -1.3125 82.125 C-4.73909889 82.32096562 -6.78248017 81.9828003 -9.5625 79.9375 C-12 77 -12 77 -12.375 73.6875 C-12.25125 72.800625 -12.1275 71.91375 -12 71 C-12.5259375 71.7734375 -12.5259375 71.7734375 -13.0625 72.5625 C-15 74 -15 74 -18.4375 73.9375 C-22.25003903 72.93420026 -23.59893762 72.04750225 -26 69 C-27.35439668 66.29120665 -27.06501451 63.99066732 -27 61 C-26.34 61 -25.68 61 -25 61 C-25 60.34 -25 59.68 -25 59 C-26.60875 58.6596875 -26.60875 58.6596875 -28.25 58.3125 C-32.43720915 56.8469768 -33.79406296 55.79421171 -36 52 C-36.57100143 48.73713469 -36.09933677 47.22350772 -34.75 44.1875 C-34.1725 43.465625 -33.595 42.74375 -33 42 C-31.68 42 -30.36 42 -29 42 C-29 41.34 -29 40.68 -29 40 C-29.78375 39.938125 -30.5675 39.87625 -31.375 39.8125 C-34 39 -34 39 -35.375 36.8125 C-36.1286871 33.42090803 -35.99218137 31.33089458 -35 28 C-32.74203767 24.90575532 -31.5104028 24.11778526 -27.75 23.25 C-26.8425 23.1675 -25.935 23.085 -25 23 C-25.66 22.34 -26.32 21.68 -27 21 C-27.38102021 17.57081815 -27.18522958 15.4289527 -25.8125 12.25 C-23.66246214 9.58098748 -22.32108532 8.7907346 -19 8 C-15.62067741 8.31435559 -14.42520546 8.57479454 -12 11 C-11.9175 9.9275 -11.835 8.855 -11.75 7.75 C-11 4 -11 4 -9.375 1.5625 C-6.08447324 -0.60232024 -3.86668289 -0.41428745 0 0 Z M-4 6 C-4.2165625 7.0828125 -4.2165625 7.0828125 -4.4375 8.1875 C-4.623125 9.115625 -4.80875 10.04375 -5 11 C-5.103125 11.886875 -5.20625 12.77375 -5.3125 13.6875 C-6 16 -6 16 -7.75 17.375 C-10.55655487 18.15459857 -12.23772441 17.87229755 -15 17 C-15.66 16.34 -16.32 15.68 -17 15 C-17.99 15 -18.98 15 -20 15 C-19.42547254 18.93075644 -19.42547254 18.93075644 -17 22 C-17.43762807 25.17280351 -18.77361505 28.05667611 -20 31 C-22.64 30.67 -25.28 30.34 -28 30 C-28.33 31.32 -28.66 32.64 -29 34 C-27.02 34.66 -25.04 35.32 -23 36 C-23 39.3 -23 42.6 -23 46 C-24.98 46.66 -26.96 47.32 -29 48 C-28.67 49.32 -28.34 50.64 -28 52 C-26.1128125 51.8453125 -26.1128125 51.8453125 -24.1875 51.6875 C-21.984375 51.68359375 -21.984375 51.68359375 -20 52 C-17.9375 54.25 -17.9375 54.25 -17 57 C-17.26027957 60.03659495 -17.8100858 60.8100858 -20 63 C-19.6814823 65.10820797 -19.6814823 65.10820797 -19 67 C-16.3094472 65.77992056 -16.3094472 65.77992056 -14 64 C-11.14056871 63.69087229 -9.33807365 63.85380599 -6.6875 65 C-4.01850365 68.16325493 -4.73463672 70.95320994 -5 75 C-3.68 75 -2.36 75 -1 75 C-0.01 73.02 0.98 71.04 2 69 C4.64 69 7.28 69 10 69 C10.680625 70.4540625 10.680625 70.4540625 11.375 71.9375 C12.65786221 75.07079582 12.65786221 75.07079582 15 76 C15.66 75.67 16.32 75.34 17 75 C16.505 70.545 16.505 70.545 16 66 C19.3 65.01 22.6 64.02 26 63 C26.66 64.32 27.32 65.64 28 67 C29.98 66.505 29.98 66.505 32 66 C30.77992056 63.3094472 30.77992056 63.3094472 29 61 C29.08937803 59.47480724 29.24537146 57.95318071 29.4375 56.4375 C29.53933594 55.61121094 29.64117187 54.78492188 29.74609375 53.93359375 C29.82988281 53.29550781 29.91367188 52.65742188 30 52 C30.62648437 52.03480469 31.25296875 52.06960937 31.8984375 52.10546875 C32.71570313 52.13253906 33.53296875 52.15960938 34.375 52.1875 C35.59316406 52.23970703 35.59316406 52.23970703 36.8359375 52.29296875 C37.55007812 52.19628906 38.26421875 52.09960938 39 52 C39.66 51.01 40.32 50.02 41 49 C39.20802605 46.86095443 39.20802605 46.86095443 36.9375 46.5 C36.298125 46.335 35.65875 46.17 35 46 C33.5216774 43.04335481 33.93967217 40.25770263 34 37 C35.98 36.01 37.96 35.02 40 34 C40 32.68 40 31.36 40 30 C38.1128125 30.12375 38.1128125 30.12375 36.1875 30.25 C32.28811667 30.24309844 32.28811667 30.24309844 30 28.3125 C28.82182908 25.58797975 28.54818811 23.93677726 29 21 C30.5 19.1875 30.5 19.1875 32 18 C31.505 16.515 31.505 16.515 31 15 C28.13275314 15.57344937 27.1385485 15.8614515 25 18 C21.15822926 17.69670231 18.90572328 16.47524576 16 14 C16.33 11.69 16.66 9.38 17 7 C15.68 6.67 14.36 6.34 13 6 C12.34 8.31 11.68 10.62 11 13 C3.54961832 13.36641221 3.54961832 13.36641221 1.125 11.75 C-0.07323197 9.88608361 -1.09356523 8.0220468 -2 6 C-2.66 6 -3.32 6 -4 6 Z " fill="#FEFEFE" transform="translate(131,91)"/>
<path d="M0 0 C4.55405248 3.45544601 7.86989795 8.81340164 8.89453125 14.4375 C9.31831706 22.06564466 7.62986278 27.42234914 2.89453125 33.4375 C-2.71155995 38.19883773 -7.18664839 39.74857468 -14.54296875 39.65234375 C-19.98586922 39.19600301 -24.68729284 36.6872754 -28.75 33.08203125 C-32.3309072 28.73747237 -33.83573583 23.35934702 -34.60546875 17.875 C-33.56723348 10.73713249 -30.87322949 5.09655685 -25.08984375 0.66015625 C-16.72544619 -4.49349815 -8.61470968 -4.62169829 0 0 Z M-25.48046875 10.0625 C-27.69063477 14.65284482 -28.01624863 18.43217056 -27.10546875 23.4375 C-25.30765684 27.53804121 -22.91744947 29.8902956 -19.23046875 32.375 C-14.32984964 34.0412105 -10.75007525 34.08244372 -5.91796875 32.1875 C-1.41530978 29.38584553 1.60883523 26.69716555 2.89453125 21.4375 C3.15718224 16.27203057 2.40965898 12.53527514 -0.91796875 8.5 C-3.63621546 5.54416875 -6.2352062 3.72994105 -10.25390625 3.1015625 C-17.20679948 2.97958192 -20.74541901 4.82902397 -25.48046875 10.0625 Z " fill="#FEFEFE" transform="translate(149.10546875,113.5625)"/>
<path d="M0 0 C2.41015625 0.1171875 2.41015625 0.1171875 5 1 C6.37109375 3.1953125 6.37109375 3.1953125 7.4375 6.125 C7.84097656 7.20007812 8.24445312 8.27515625 8.66015625 9.3828125 C9.10230469 10.57648437 9.54445313 11.77015625 10 13 C10.55448577 14.33353993 11.11588693 15.66422207 11.68359375 16.9921875 C11.96468994 17.65847168 12.24578613 18.32475586 12.53540039 19.01123047 C13.08691305 20.31760502 13.64451694 21.62142794 14.20874023 22.92236328 C15.27389162 25.51039421 16.02772608 27.55638277 15.8515625 30.375 C15 32 15 32 12 33 C11.01 32.34 10.02 31.68 9 31 C8.3125 27.375 8.3125 27.375 8 24 C4.37 24 0.74 24 -3 24 C-3.28875 25.11375 -3.5775 26.2275 -3.875 27.375 C-5 31 -5 31 -7 33 C-9.125 32.625 -9.125 32.625 -11 32 C-11.22149252 27.64608994 -10.78140749 24.87723321 -8.8125 21 C-6.09360161 15.37629564 -4.03746933 9.6726162 -2.015625 3.7734375 C-1 1 -1 1 0 0 Z M2 12 C1.34 13.65 0.68 15.3 0 17 C1.32 17 2.64 17 4 17 C3.67 15.35 3.34 13.7 3 12 C2.67 12 2.34 12 2 12 Z " fill="#FEFEFE" transform="translate(43,45)"/>
<path d="M0 0 C5.66370973 0.11119849 9.29312912 1.1832119 13.625 4.9375 C15.39883231 8.6822571 15.27354936 12.24772094 14.75 16.3125 C13.35911202 19.8669915 12.18618806 21.02501242 9 23.125 C5.37789655 24.44846088 2.57678568 24.54210714 -1.25 24.3125 C-1.25 26.9525 -1.25 29.5925 -1.25 32.3125 C-3.125 32.9375 -3.125 32.9375 -5.25 33.3125 C-8.04619132 30.51630868 -7.50822389 28.75365287 -7.515625 24.84375 C-7.51820312 23.55082031 -7.52078125 22.25789063 -7.5234375 20.92578125 C-7.51924805 20.25111816 -7.51505859 19.57645508 -7.51074219 18.88134766 C-7.5000407 16.82033843 -7.51063943 14.76020081 -7.5234375 12.69921875 C-7.52085938 11.40628906 -7.51828125 10.11335938 -7.515625 8.78125 C-7.51336914 7.58951172 -7.51111328 6.39777344 -7.50878906 5.16992188 C-7.04272028 0.02381903 -4.55825515 0.01868137 0 0 Z M-0.25 6.3125 C-1.4745178 7.31719623 -1.4745178 7.31719623 -1.3828125 9.34375 C-1.38023438 10.1584375 -1.37765625 10.973125 -1.375 11.8125 C-1.37757812 12.6271875 -1.38015625 13.441875 -1.3828125 14.28125 C-1.4745178 16.30780377 -1.4745178 16.30780377 -0.25 17.3125 C2.6657691 17.72952122 2.6657691 17.72952122 5.75 17.3125 C7.8285608 15.73554368 7.8285608 15.73554368 8.75 13.3125 C8.52802187 10.6140411 8.52802187 10.6140411 7.75 8.3125 C6.43942607 7.95127119 5.12646376 7.59869689 3.8125 7.25 C2.71615234 6.95416016 2.71615234 6.95416016 1.59765625 6.65234375 C0.68306641 6.48412109 0.68306641 6.48412109 -0.25 6.3125 Z " fill="#FEFEFE" transform="translate(70.25,44.6875)"/>
<path d="M0 0 C1.74796875 -0.02126953 1.74796875 -0.02126953 3.53125 -0.04296875 C6.5 0.1875 6.5 0.1875 8.5 2.1875 C8.125 4.3125 8.125 4.3125 7.5 6.1875 C6.18 6.5175 4.86 6.8475 3.5 7.1875 C3.17 13.4575 2.84 19.7275 2.5 26.1875 C4.15 26.5175 5.8 26.8475 7.5 27.1875 C7.83 28.8375 8.16 30.4875 8.5 32.1875 C5.49686252 33.68906874 2.70932478 33.28031204 -0.625 33.25 C-1.90632813 33.24097656 -3.18765625 33.23195312 -4.5078125 33.22265625 C-5.98894531 33.20525391 -5.98894531 33.20525391 -7.5 33.1875 C-7.83 31.5375 -8.16 29.8875 -8.5 28.1875 C-7.68144531 27.88199219 -6.86289063 27.57648438 -6.01953125 27.26171875 C-3.35883986 25.50986936 -3.35883986 25.50986936 -3.08740234 23.25244141 C-3.00716762 20.81899977 -3.06525889 18.43165774 -3.1875 16 C-3.21005859 15.15501953 -3.23261719 14.31003906 -3.25585938 13.43945312 C-3.31475037 11.35471202 -3.40443202 9.27088196 -3.5 7.1875 C-5.975 6.1975 -5.975 6.1975 -8.5 5.1875 C-8.5 3.8675 -8.5 2.5475 -8.5 1.1875 C-5.65161879 -0.2366906 -3.17212092 0.01754492 0 0 Z " fill="#FEFEFE" transform="translate(95.5,44.8125)"/>
</svg>
